<svg height="512pt" viewBox="0 -78 512 512" width="512pt" xmlns="http://www.w3.org/2000/svg"><path d="m105.332031 38.335938h100.332031v74.664062h-100.332031zm0 0" fill="#676e74"/><path d="m90.332031 0h30v113h-30zm0 0" fill="#32393f"/><path d="m352 102.335938h-96l-10.667969 78.996093 10.667969 68.335938h96zm0 0" fill="#0279c0"/><path d="m37 102.335938h219v147.332031h-219zm0 0" fill="#0093fd"/><g fill="#a6e9f8"><path d="m226 161h30v30h-30zm0 0"/><path d="m160 161h30v30h-30zm0 0"/><path d="m94 161h30v30h-30zm0 0"/></g><path d="m256 341.230469h201.390625l23.960937-63.894531-225.351562-10.667969-10.667969 32zm0 0" fill="#f04000"/><path d="m256 341.230469v-74.5625l-240.796875 10.667969 15.976563 63.894531zm0 0" fill="#ff6200"/><path d="m481.351562 277.335938 29.625-79h-175.519531l-32 21.332031h-47.457031l-10.667969 25.664062 10.667969 32.003907zm0 0" fill="#d3d3d8"/><path d="m256 219.667969h-255.210938l14.414063 57.667969h240.796875zm0 0" fill="#e2e2e7"/><path d="m512 326.335938h-256l-10.667969 15 10.667969 15h256zm0 0" fill="#36cff5"/><path d="m0 326.335938h256v30h-256zm0 0" fill="#74e0f6"/></svg>