<svg id="Capa_1" enable-background="new 0 0 512.002 512.002" height="512" viewBox="0 0 512.002 512.002" width="512" xmlns="http://www.w3.org/2000/svg"><path d="m332.635 252.407-14.172 54.396c-2.269 8.707-10.131 14.784-19.13 14.784h-272.06c-12.467 0-21.822 11.4-19.388 23.628l9.708 48.768c5.925 29.763 32.046 51.198 62.393 51.198h321.004c28.957 0 54.261-19.556 61.562-47.578l41.296-158.5c3.263-12.523-6.188-24.752-19.13-24.752h-102.84c-23.163-.001-43.403 15.641-49.243 38.056z" fill="#fcf2d0"/><path d="m253.305 321.586h-226.032c-12.467 0-21.822 11.4-19.388 23.628l9.708 48.768c5.925 29.763 32.047 51.198 62.393 51.198h228.583c-42.725-25.333-69.456-65.639-55.264-123.594z" fill="#f6e3a3"/><path d="m67.074 196.356h200.874v125.23h-200.874z" fill="#fcf2d0"/><path d="m117.206 196.356h-50.132v125.23h76.405c-21.367-34.46-31.93-86.008-26.273-125.23z" fill="#f6e3a3"/><path d="m275.567 196.356h-216.112c-6.729 0-12.184-5.455-12.184-12.183v-22.848c0-6.729 5.455-12.183 12.184-12.183h216.113c6.729 0 12.183 5.455 12.183 12.183v22.848c0 6.729-5.455 12.183-12.184 12.183z" fill="#8eafe2"/><path d="m446.715 214.35h-27.051v-101.138c0-4.282 3.471-7.753 7.753-7.753h11.545c4.282 0 7.753 3.471 7.753 7.753z" fill="#4e5660"/><path d="m462.008 164.103h-57.638c-4.621 0-8.368-3.747-8.368-8.368v-13.272c0-4.622 3.746-8.368 8.368-8.368h57.638c4.621 0 8.368 3.746 8.368 8.368v13.272c0 4.621-3.746 8.368-8.368 8.368z" fill="#8eafe2"/><path d="m222.086 260.469h62.438c5.385 0 9.75-4.366 9.75-9.751v-12.784c0-5.385-4.365-9.751-9.75-9.751h-62.438c-5.385 0-9.751 4.365-9.751 9.751v12.784c.001 5.386 4.366 9.751 9.751 9.751z" fill="#a3defe"/><path d="m114.59 251.827h-16.121c-4.142 0-7.5-3.358-7.5-7.5s3.358-7.5 7.5-7.5h16.121c4.142 0 7.5 3.358 7.5 7.5s-3.357 7.5-7.5 7.5z" fill="#a3defe"/><g fill="#8eafe2"><path d="m175.571 251.827h-16.121c-4.142 0-7.5-3.358-7.5-7.5s3.358-7.5 7.5-7.5h16.121c4.142 0 7.5 3.358 7.5 7.5s-3.358 7.5-7.5 7.5z"/><path d="m114.59 293.906h-16.121c-4.142 0-7.5-3.358-7.5-7.5s3.358-7.5 7.5-7.5h16.121c4.142 0 7.5 3.358 7.5 7.5s-3.357 7.5-7.5 7.5z"/><path d="m236.552 293.906h-16.121c-4.142 0-7.5-3.358-7.5-7.5s3.358-7.5 7.5-7.5h16.121c4.142 0 7.5 3.358 7.5 7.5s-3.358 7.5-7.5 7.5z"/></g><path d="m175.571 293.906h-16.121c-4.142 0-7.5-3.358-7.5-7.5s3.358-7.5 7.5-7.5h16.121c4.142 0 7.5 3.358 7.5 7.5s-3.358 7.5-7.5 7.5z" fill="#a3defe"/><path d="m170.772 121.902h-56.213c-5.795 0-10.492 4.698-10.492 10.492v16.747h77.198v-16.747c-.001-5.794-4.698-10.492-10.493-10.492z" fill="#fcf2d0"/><ellipse cx="358.556" cy="284.907" fill="#eda1ab" rx="20.001" ry="15.928"/><ellipse cx="466.969" cy="284.907" fill="#eda1ab" rx="20.001" ry="15.928"/><path d="m18.05 396.041c6.696 28.685 32.295 49.139 61.936 49.139h321.004c28.957 0 54.261-19.556 61.562-47.578l.407-1.561z" fill="#8eafe2"/><path d="m79.986 445.18h228.583c-21.213-12.578-38.475-28.852-48.752-49.139h-241.767c6.696 28.685 32.295 49.139 61.936 49.139z" fill="#6a96d7"/><path d="m163.694 149.141h-104.239c-6.729 0-12.184 5.455-12.184 12.183v22.848c0 6.729 5.455 12.183 12.184 12.183h114.372c-14.377-6.777-19.49-31.599-10.133-47.214z" fill="#6a96d7"/><path d="m429.635 274.259c2.722-3.122 2.397-7.86-.726-10.582-3.122-2.722-7.86-2.397-10.582.726-1.406 1.613-3.435 2.539-5.565 2.539s-4.158-.925-5.564-2.539c-2.722-3.123-7.46-3.448-10.581-.726-3.123 2.722-3.448 7.459-.726 10.582 4.256 4.883 10.405 7.683 16.872 7.683s12.616-2.801 16.872-7.683zm-356.365 81.86c-4.142 0-7.5 3.358-7.5 7.5s3.358 7.5 7.5 7.5h46.518c4.142 0 7.5-3.358 7.5-7.5s-3.358-7.5-7.5-7.5zm296.943-79.601c4.142 0 7.5-3.358 7.5-7.5v-7.064c0-4.142-3.358-7.5-7.5-7.5s-7.5 3.358-7.5 7.5v7.064c0 4.142 3.358 7.5 7.5 7.5zm92.6-7.5v-7.064c0-4.142-3.358-7.5-7.5-7.5s-7.5 3.358-7.5 7.5v7.064c0 4.142 3.358 7.5 7.5 7.5s7.5-3.358 7.5-7.5zm43.482-51.575c-5.203-6.732-13.067-10.593-21.576-10.593h-30.504v-35.247h7.793c8.75 0 15.868-7.119 15.868-15.868v-13.272c0-8.749-7.119-15.868-15.868-15.868h-7.793v-13.382c0-8.411-6.842-15.253-15.253-15.253h-11.545c-8.411 0-15.253 6.842-15.253 15.253v13.382h-7.793c-8.75 0-15.868 7.118-15.868 15.868v13.272c0 8.75 7.119 15.868 15.868 15.868h7.793v35.247h-30.287c-26.568 0-49.802 17.956-56.5 43.666l-14.173 54.396c-1.407 5.402-6.289 9.175-11.872 9.175h-23.885v-46.117h9.076c9.512 0 17.25-7.739 17.25-17.25v-12.784c0-9.512-7.739-17.251-17.25-17.251h-9.076v-16.828h.119c10.854 0 19.684-8.83 19.684-19.683v-22.849c0-10.854-8.83-19.683-19.684-19.683h-86.803v-9.247c0-9.921-8.071-17.992-17.993-17.992h-20.606v-6.318h8.661c4.142 0 7.5-3.358 7.5-7.5s-3.358-7.5-7.5-7.5h-8.661v-5.587h15.378c4.142 0 7.5-3.358 7.5-7.5s-3.358-7.5-7.5-7.5h-15.378v-5.675c0-4.142-3.358-7.5-7.5-7.5s-7.5 3.358-7.5 7.5v5.675h-15.377c-4.142 0-7.5 3.358-7.5 7.5s3.358 7.5 7.5 7.5h15.377v5.587h-8.661c-4.142 0-7.5 3.358-7.5 7.5s3.358 7.5 7.5 7.5h8.661v6.318h-20.606c-9.921 0-17.993 8.071-17.993 17.992v9.247h-24.78c-4.142 0-7.5 3.358-7.5 7.5s3.358 7.5 7.5 7.5h203.782c2.583 0 4.684 2.101 4.684 4.683v22.849c0 2.582-2.101 4.683-4.684 4.683h-216.112c-2.583 0-4.684-2.101-4.684-4.683v-18.674c0-4.142-3.358-7.5-7.5-7.5s-7.5 3.358-7.5 7.5v18.673c0 10.854 8.83 19.683 19.684 19.683h.119v110.23h-32.301c-8.197 0-15.88 3.634-21.08 9.971-5.199 6.336-7.264 14.582-5.663 22.621l9.708 48.769c6.601 33.163 35.935 57.233 69.748 57.233h306.124c4.142 0 7.5-3.358 7.5-7.5s-3.358-7.5-7.5-7.5h-306.124c-26.682 0-49.829-18.993-55.037-45.162l-9.708-48.769c-.72-3.617.209-7.326 2.548-10.177s5.796-4.486 9.484-4.486h272.06c12.408 0 23.259-8.386 26.387-20.393l14.173-54.396c4.978-19.105 22.242-32.448 41.985-32.448h102.842c3.828 0 7.366 1.737 9.707 4.766s3.13 6.891 2.165 10.595l-41.296 158.5c-4.741 18.197-18.18 32.734-35.95 38.888-3.914 1.355-5.988 5.627-4.633 9.541 1.355 3.915 5.627 5.99 9.541 4.633 22.518-7.798 39.549-26.22 45.557-49.28l41.296-158.501c2.145-8.232.391-16.816-4.812-23.548zm-332.531-75.802h-62.198v-9.247c0-1.65 1.342-2.992 2.993-2.992h56.212c1.65 0 2.993 1.342 2.993 2.992zm110.76 94.043c1.241 0 2.25 1.01 2.25 2.251v12.784c0 1.241-1.01 2.251-2.25 2.251h-62.438c-1.241 0-2.251-1.01-2.251-2.251v-12.784c0-1.241 1.01-2.251 2.251-2.251zm-24.076 78.402h-185.874v-110.23h185.874v16.828h-38.361c-9.512 0-17.251 7.739-17.251 17.251v12.784c0 9.512 7.739 17.25 17.251 17.25h38.361zm166.716-200.874c0-.14.113-.253.253-.253h11.545c.14 0 .253.113.253.253v13.382h-12.051zm-22.793 43.39c-.479 0-.868-.39-.868-.868v-13.272c0-.479.39-.868.868-.868h57.638c.479 0 .868.389.868.868v13.272c0 .479-.39.868-.868.868zm34.844 50.247h-12.051v-35.247h12.051zm-102.733 144.949c-2.722-3.123-7.459-3.448-10.582-.726-3.122 2.721-3.448 7.459-.727 10.582 6.553 7.519 16.022 11.832 25.978 11.832 9.957 0 19.426-4.313 25.979-11.832 2.721-3.122 2.396-7.86-.727-10.582-3.124-2.722-7.861-2.397-10.582.726-1.987 2.28-4.449 4.032-7.17 5.172v-11.853h.794c4.142 0 7.5-3.358 7.5-7.5s-3.358-7.5-7.5-7.5h-.794v-.352c0-4.142-3.358-7.5-7.5-7.5s-7.5 3.358-7.5 7.5v.352h-.793c-4.142 0-7.5 3.358-7.5 7.5s3.358 7.5 7.5 7.5h.793v11.853c-2.72-1.141-5.182-2.893-7.169-5.172z"/></svg>