<svg id="Twotone" height="512" viewBox="0 0 64 64" width="512" xmlns="http://www.w3.org/2000/svg"><g id="Stroke_copy_3" data-name="Stroke copy 3"><path d="m23.16 37a6 6 0 0 1 -5.73-7.79l1.32-4.21h-4.75l-5 16h46l-1.25-4z" fill="#cff09e"/><g fill="#79bd9a"><path d="m18 29h4v4h-4z"/><path d="m34 29h4v4h-4z"/><path d="m34 37h4v4h-4z"/><path d="m26 29h4v4h-4z"/><path d="m26 37h4v4h-4z"/><path d="m42 29h4v4h-4z"/><path d="m42 37h4v4h-4z"/><path d="m18 37h4v4h-4z"/></g><path d="m16 21h6v4h-6z" fill="#a8dba8"/><path d="m30 11h-3l-1 6h4z" fill="#79bd9a"/><path d="m38 11h-3l-1 6h4z" fill="#79bd9a"/><path d="m46 11h-3l-1 6h4z" fill="#79bd9a"/><path d="m49 37-2 4h-30l-2-4h-12l7 16h44l7-16z" fill="#a8dba8"/><circle cx="41" cy="47" fill="#79bd9a" r="2"/><circle cx="49" cy="47" fill="#79bd9a" r="2"/><circle cx="33" cy="47" fill="#79bd9a" r="2"/><circle cx="13" cy="45" fill="#79bd9a" r="2"/><path d="m25 17h-3v8h24v-2h-15a6 6 0 0 1 -6-6z" fill="#cff09e"/></g><g id="Stroke_Close_copy" fill="#3b8686" data-name="Stroke Close copy"><path d="m41 44a3 3 0 1 0 3 3 3 3 0 0 0 -3-3zm0 4a1 1 0 1 1 1-1 1 1 0 0 1 -1 1z"/><path d="m49 44a3 3 0 1 0 3 3 3 3 0 0 0 -3-3zm0 4a1 1 0 1 1 1-1 1 1 0 0 1 -1 1z"/><path d="m33 44a3 3 0 1 0 3 3 3 3 0 0 0 -3-3zm0 4a1 1 0 1 1 1-1 1 1 0 0 1 -1 1z"/><path d="m61.84 36.45a1 1 0 0 0 -.84-.45h-6.52l-3.48-11.3a1 1 0 0 0 -1-.7h-3v-13a1 1 0 0 0 -1-1h-3a1 1 0 0 0 -1 .84l-.85 5.16h-2.15v-5a1 1 0 0 0 -1-1h-3a1 1 0 0 0 -1 .84l-.85 5.16h-2.15v-5a1 1 0 0 0 -1-1h-3a1 1 0 0 0 -1 .84l-.85 5.16h-3.15a1 1 0 0 0 -1 1v3h-5a1 1 0 0 0 -1 1v3h-1a1 1 0 0 0 -.95.7l-3.53 11.3h-6.52a1 1 0 0 0 -.84.45 1 1 0 0 0 -.08.95l7 16a1 1 0 0 0 .92.6h44a1 1 0 0 0 .92-.6l7-16a1 1 0 0 0 -.08-.95zm-17.99-24.45h1.15v4h-1.82zm-8 0h1.15v4h-1.82zm-8 0h1.15v4h-1.82zm-4.85 6h22v6h-22zm-6 4h4v2h-4zm-2.26 4h34.52l3.13 10h-3.39a1 1 0 0 0 -.89.55l-1.11 2.21v-1.76a1 1 0 0 0 -1-1h-4a1 1 0 0 0 -1 1v3h-2v-3a1 1 0 0 0 -1-1h-4a1 1 0 0 0 -1 1v3h-2v-3a1 1 0 0 0 -1-1h-4a1 1 0 0 0 -1 1v3h-2v-3a1 1 0 0 0 -1-1h-4a1 1 0 0 0 -1 1v1.76l-1.11-2.21a1 1 0 0 0 -.89-.55h-3.39zm30.26 14h-2v-2h2zm-8 0h-2v-2h2zm-8 0h-2v-2h2zm-8 0h-2v-2h2zm32.35 12h-42.7l-6.12-14h9.85l1.73 3.45a1 1 0 0 0 .89.55h30a1 1 0 0 0 .89-.55l1.73-3.45h9.85z"/><path d="m18 34h4a1 1 0 0 0 1-1v-4a1 1 0 0 0 -1-1h-4a1 1 0 0 0 -1 1v4a1 1 0 0 0 1 1zm1-4h2v2h-2z"/><path d="m34 34h4a1 1 0 0 0 1-1v-4a1 1 0 0 0 -1-1h-4a1 1 0 0 0 -1 1v4a1 1 0 0 0 1 1zm1-4h2v2h-2z"/><path d="m26 34h4a1 1 0 0 0 1-1v-4a1 1 0 0 0 -1-1h-4a1 1 0 0 0 -1 1v4a1 1 0 0 0 1 1zm1-4h2v2h-2z"/><path d="m42 34h4a1 1 0 0 0 1-1v-4a1 1 0 0 0 -1-1h-4a1 1 0 0 0 -1 1v4a1 1 0 0 0 1 1zm1-4h2v2h-2z"/><circle cx="26" cy="21" r="1"/><circle cx="30" cy="21" r="1"/><circle cx="34" cy="21" r="1"/><circle cx="38" cy="21" r="1"/><circle cx="42" cy="21" r="1"/><path d="m13 42a3 3 0 1 0 3 3 3 3 0 0 0 -3-3zm0 4a1 1 0 1 1 1-1 1 1 0 0 1 -1 1z"/></g></svg>