<svg id="Capa_1" enable-background="new 0 0 512 512" height="512" viewBox="0 0 512 512" width="512" xmlns="http://www.w3.org/2000/svg"><circle cx="256" cy="256" fill="#19cffc" r="256"/><path d="m510.077 224.565-119.361-119.361-15.065 55.689-55.689-55.689-37.561 214.658 134.911 134.911c57.767-46.938 94.688-118.539 94.688-198.773 0-10.644-.661-21.132-1.923-31.435z" fill="#1ea1e3"/><path d="m266.234 197.667h-146.567l26.625-51.963c4.118-8.037 12.388-13.092 21.418-13.092h98.523v65.055z" fill="#ffd400"/><path d="m255.839 132.612h10.395v65.054h-10.395z" fill="#fcaf03"/><path d="m336.988 105.204h53.728v102h-53.728z" fill="#636978"/><path d="m336.988 120.816h53.728v23.592h-53.728z" fill="#ff583e"/><path d="m266.234 105.204h53.728v102h-53.728z" fill="#636978"/><path d="m266.234 120.816h53.728v23.592h-53.728z" fill="#ff583e"/><path d="m399.734 269.204h-268.499c-16.176 0-29.288-13.113-29.288-29.288v-30.831c0-16.176 13.113-29.288 29.288-29.288h268.498c16.176 0 29.288 13.113 29.288 29.288v30.831c.001 16.175-13.112 29.288-29.287 29.288z" fill="#fff"/><path d="m399.734 179.796h-143.895v89.408h143.895c16.176 0 29.288-13.113 29.288-29.289v-30.831c0-16.175-13.113-29.288-29.288-29.288z" fill="#e9edf5"/><path d="m417.569 373h-288.569l-69.971-136h402.977z" fill="#555a66"/><path d="m462.006 237h-206.167v136h161.73z" fill="#333940"/><path d="m460.746 322c-34.127 0-34.127-16-68.254-16-34.126 0-34.126 16-68.251 16s-34.125-16-68.249-16c-34.123 0-34.123 16-68.246 16-34.124 0-34.124-16-68.249-16s-34.125 16-68.25 16c-24.323 0-31.327-8.121-45.693-12.789 24.492 115.845 127.309 202.789 250.446 202.789 123.138 0 225.955-86.945 250.447-202.79-14.37 4.668-21.374 12.79-45.701 12.79z" fill="#96e8ff"/><path d="m460.746 322c-34.127 0-34.127-16-68.254-16-34.125 0-34.125 16-68.251 16-34.125 0-34.125-16-68.249-16-.052 0-.1.002-.152.002v205.996c.054 0 .107.002.161.002 123.138 0 225.955-86.945 250.447-202.79-14.371 4.668-21.375 12.79-45.702 12.79z" fill="#19cffc"/><path d="m49.995 407.985c46.625 63.093 121.532 104.015 206.005 104.015s159.38-40.922 206.006-104.016c-.42.005-.829.016-1.26.016-34.127 0-34.127-16-68.254-16-34.125 0-34.125 16-68.251 16-34.125 0-34.125-16-68.249-16-34.123 0-34.123 16-68.246 16-34.124 0-34.124-16-68.249-16s-34.125 16-68.25 16c-.429 0-.835-.01-1.252-.015z" fill="#cff9ff"/><path d="m460.746 408c-34.127 0-34.127-16-68.254-16-34.125 0-34.125 16-68.251 16-34.125 0-34.125-16-68.249-16-.052 0-.1.002-.152.002v119.997c.054 0 .107.001.161.001 84.473 0 159.38-40.922 206.006-104.016-.422.006-.83.016-1.261.016z" fill="#96e8ff"/><circle cx="390.716" cy="269.204" fill="#cdd2e1" r="17.716"/><circle cx="338.227" cy="269.204" fill="#cdd2e1" r="17.716"/><circle cx="285.738" cy="269.204" fill="#cdd2e1" r="17.716"/><circle cx="233.25" cy="269.204" fill="#e9edf5" r="17.716"/><circle cx="180.761" cy="269.204" fill="#e9edf5" r="17.716"/><circle cx="128.272" cy="269.204" fill="#e9edf5" r="17.716"/><g fill="#cdd2e1"><path d="m128.272 197.667h24.531v24.531h-24.531z"/><path d="m163.233 197.667h24.531v24.531h-24.531z"/><path d="m198.194 197.667h24.531v24.531h-24.531z"/><path d="m231.308 197.667h24.531v24.531h-24.531z"/></g><path d="m268.117 197.667h24.531v24.531h-24.531z" fill="#afb4c8"/><path d="m303.078 197.667h24.531v24.531h-24.531z" fill="#afb4c8"/><path d="m338.039 197.667h24.531v24.531h-24.531z" fill="#afb4c8"/><path d="m373 197.667h24.531v24.531h-24.531z" fill="#afb4c8"/></svg>